<svg width="35" height="35" viewBox="0 0 35 35" fill="none" xmlns="http://www.w3.org/2000/svg">
<g clip-path="url(#clip0_45_12386)">
<path d="M17.5065 0.000760612C13.962 0.000430605 10.501 1.07628 7.58096 3.0859C4.66091 5.09543 2.41997 7.94391 1.15436 11.2548C-0.111601 14.5657 -0.342335 18.1827 0.491993 21.6273C1.32663 25.0721 3.1873 28.1827 5.82787 30.5466C6.26218 30.9377 6.71726 31.305 7.1909 31.6469C10.1852 33.829 13.7951 35.0046 17.5 35.0046C21.2052 35.0046 24.8148 33.829 27.8092 31.6469C28.2831 31.305 28.7378 30.9377 29.1719 30.5466C31.8117 28.1829 33.6721 25.0738 34.5071 21.6298C35.342 18.1863 35.1123 14.5702 33.848 11.2599C32.5836 7.94932 30.3447 5.10092 27.427 3.09037C24.5088 1.07983 21.0495 0.00228116 17.5056 0L17.5065 0.000760612ZM17.5065 6.25248V6.25281C18.8332 6.25281 20.1052 6.77953 21.0431 7.71748C21.981 8.65545 22.5081 9.92766 22.5081 11.254C22.5081 12.5804 21.981 13.8527 21.0431 14.7906C20.1051 15.7286 18.8332 16.2556 17.5065 16.2556C16.1802 16.2556 14.9079 15.7285 13.97 14.7906C13.032 13.8526 12.5053 12.5804 12.5053 11.254C12.5053 9.92766 13.032 8.65537 13.97 7.71748C14.9079 6.7795 16.1802 6.25281 17.5065 6.25281V6.25248ZM17.5065 31.2599C13.4033 31.2582 9.51487 29.4239 6.90337 26.2586C7.93369 23.2976 10.1525 20.901 13.0254 19.6456C15.8983 18.3902 19.1646 18.3902 22.0368 19.6456C24.9097 20.901 27.1285 23.2977 28.1592 26.2586C25.5368 29.4375 21.627 31.2731 17.5062 31.2599H17.5065Z" fill="#7B809A"/>
</g>
<defs>
<clipPath id="clip0_45_12386">
<rect width="35" height="35" fill="white"/>
</clipPath>
</defs>
</svg>
