<svg width="300" height="252" viewBox="0 0 300 252" fill="none" xmlns="http://www.w3.org/2000/svg">
<g clip-path="url(#clip0_166_18400)">
<path d="M230.372 59.472L299.924 126.504L230.372 193.032V148.428H126.296V104.076H230.372V59.472ZM188.54 188.496L215.252 215.46C189.044 239.988 160.652 252.252 130.076 252.252C93.6199 252.252 62.9179 240.198 37.9699 216.09C13.0219 191.982 0.547852 161.868 0.547852 125.748C0.547852 103.068 6.25985 82.068 17.6839 62.748C29.1079 43.428 44.5219 28.182 63.9259 17.01C83.3299 5.83795 104.372 0.251953 127.052 0.251953C157.964 0.251953 187.28 12.684 215 37.548L188.54 64.26C169.388 46.788 148.976 38.052 127.304 38.052C102.272 38.052 81.1459 46.788 63.9259 64.26C46.7059 81.732 38.0959 103.068 38.0959 128.268C38.0959 151.788 46.9579 172.032 64.6819 189C82.4059 205.968 103.196 214.452 127.052 214.452C149.06 214.452 169.556 205.8 188.54 188.496Z" fill="#EB5757"/>
</g>
<defs>
<clipPath id="clip0_166_18400">
<rect width="299.376" height="252" fill="white" transform="translate(0.547852)"/>
</clipPath>
</defs>
</svg>
