<svg width="252" height="252" viewBox="0 0 252 252" fill="none" xmlns="http://www.w3.org/2000/svg">
<path d="M123.699 12.1798C68.6248 12.2262 17.9944 58.1184 12.7983 113.015C7.2226 159.771 33.536 208.641 76.4833 228.501C116.367 247.995 167.56 241.826 200.639 211.81C234.295 182.686 249.001 133.044 234.218 90.6928C220.158 47.4849 178.667 14.4061 132.969 12.404C129.883 12.2022 126.791 12.1644 123.699 12.1798V12.1798ZM125.955 47.8306C166.515 46.6508 203.699 82.4236 204.175 123C205.929 160.12 178.042 196.57 141.05 202.794C105.254 209.964 65.5531 189.276 53.0236 154.525C39.535 120.159 53.2964 76.7001 86.1287 58.663C98.1332 51.6144 112.031 47.8132 125.955 47.8306V47.8306ZM83.866 86.6247L126.888 121.526C141.229 109.892 155.57 98.2584 169.91 86.6247H83.8663H83.866ZM74.3201 94.7248V165.375H177.68V96.1653L126.888 137.37L74.3202 94.7248H74.3201Z" fill="#74788C"/>
</svg>
